# xmcd
#
# Track frame offsets:
#	150
#	16058
#	31226
#	44116
#	63135
#	73406
#	95378
#	108536
#
# Disc length: 1636 seconds
#
# Revision: 0
# Processed by: cddbd v1.5.2PL0 Copyright (c) Steve Scherf et al.
# Submitted via: dBpowerAMP V4.0
#
DISCID=69066208
DTITLE=Saray Sosa - La Sangre
DYEAR=1900
DGENRE=Gospel
TTITLE0=La Sangre
TTITLE1=Alegrate
TTITLE2=Cuan feliz sera
TTITLE3=El verdadero Amor
TTITLE4=Pacientemente
TTITLE5=Seguire
TTITLE6=Tu Jehova
TTITLE7=Quiero Conocer
EXTD=
EXTT0=
EXTT1=
EXTT2=
EXTT3=
EXTT4=
EXTT5=
EXTT6=
EXTT7=
PLAYORDER=
